<svg width="75" height="75" viewBox="0 0 75 75" fill="none" xmlns="http://www.w3.org/2000/svg">
<path d="M28.1342 18.7498C28.1342 16.2659 29.1209 13.8837 30.8773 12.1273C32.6337 10.3709 35.0159 9.38416 37.4998 9.38416C39.9837 9.38416 42.3659 10.3709 44.1223 12.1273C45.8787 13.8837 46.8654 16.2659 46.8654 18.7498C46.8654 21.2337 45.8787 23.6159 44.1223 25.3723C42.3659 27.1287 39.9837 28.1154 37.4998 28.1154C35.0159 28.1154 32.6337 27.1287 30.8773 25.3723C29.1209 23.6159 28.1342 21.2337 28.1342 18.7498ZM37.4998 14.0717C36.8854 14.0717 36.2771 14.1927 35.7095 14.4278C35.142 14.6629 34.6263 15.0074 34.1918 15.4418C33.7574 15.8763 33.4129 16.392 33.1778 16.9595C32.9427 17.5271 32.8217 18.1354 32.8217 18.7498C32.8217 19.3641 32.9427 19.9724 33.1778 20.54C33.4129 21.1076 33.7574 21.6233 34.1918 22.0577C34.6263 22.4921 35.142 22.8367 35.7095 23.0718C36.2771 23.3069 36.8854 23.4279 37.4998 23.4279C38.7405 23.4279 39.9304 22.935 40.8077 22.0577C41.685 21.1804 42.1779 19.9905 42.1779 18.7498C42.1779 17.5091 41.685 16.3192 40.8077 15.4418C39.9304 14.5645 38.7405 14.0717 37.4998 14.0717Z" fill="#505CFD"/>
<path d="M51.5625 21.0938C51.5625 20.1704 51.7444 19.2561 52.0977 18.403C52.4511 17.5499 52.969 16.7748 53.6219 16.1219C54.2748 15.469 55.0499 14.9511 55.903 14.5977C56.7561 14.2444 57.6704 14.0625 58.5938 14.0625C59.5171 14.0625 60.4314 14.2444 61.2845 14.5977C62.1376 14.9511 62.9127 15.469 63.5656 16.1219C64.2185 16.7748 64.7364 17.5499 65.0898 18.403C65.4431 19.2561 65.625 20.1704 65.625 21.0938C65.625 22.9586 64.8842 24.747 63.5656 26.0656C62.247 27.3842 60.4586 28.125 58.5938 28.125C56.7289 28.125 54.9405 27.3842 53.6219 26.0656C52.3033 24.747 51.5625 22.9586 51.5625 21.0938ZM58.5938 18.75C57.9721 18.75 57.376 18.9969 56.9365 19.4365C56.4969 19.876 56.25 20.4721 56.25 21.0938C56.25 21.7154 56.4969 22.3115 56.9365 22.751C57.376 23.1906 57.9721 23.4375 58.5938 23.4375C59.2154 23.4375 59.8115 23.1906 60.251 22.751C60.6906 22.3115 60.9375 21.7154 60.9375 21.0938C60.9375 20.4721 60.6906 19.876 60.251 19.4365C59.8115 18.9969 59.2154 18.75 58.5938 18.75Z" fill="#505CFD"/>
<path d="M16.4062 14.0625C14.5414 14.0625 12.753 14.8033 11.4344 16.1219C10.1158 17.4405 9.375 19.2289 9.375 21.0938C9.375 22.9586 10.1158 24.747 11.4344 26.0656C12.753 27.3842 14.5414 28.125 16.4062 28.125C18.2711 28.125 20.0595 27.3842 21.3781 26.0656C22.6967 24.747 23.4375 22.9586 23.4375 21.0938C23.4375 19.2289 22.6967 17.4405 21.3781 16.1219C20.0595 14.8033 18.2711 14.0625 16.4062 14.0625ZM14.0625 21.0938C14.0625 20.4721 14.3094 19.876 14.749 19.4365C15.1885 18.9969 15.7846 18.75 16.4062 18.75C17.0279 18.75 17.624 18.9969 18.0635 19.4365C18.5031 19.876 18.75 20.4721 18.75 21.0938C18.75 21.7154 18.5031 22.3115 18.0635 22.751C17.624 23.1906 17.0279 23.4375 16.4062 23.4375C15.7846 23.4375 15.1885 23.1906 14.749 22.751C14.3094 22.3115 14.0625 21.7154 14.0625 21.0938Z" fill="#505CFD"/>
<path d="M20.0063 32.8125C19.1813 34.2368 18.7479 35.854 18.75 37.5H9.375V49.2188C9.37462 50.3847 9.6642 51.5325 10.2177 52.5587C10.7711 53.5849 11.5711 54.4574 12.5456 55.0976C13.52 55.7378 14.6384 56.1256 15.8 56.2261C16.9617 56.3266 18.13 56.1367 19.2 55.6734C19.5469 57.225 20.0906 58.7063 20.7937 60.0891C19.0147 60.8074 17.0864 61.0779 15.1784 60.8769C13.2703 60.6759 11.4408 60.0094 9.85051 58.9361C8.2602 57.8628 6.95775 56.4154 6.05753 54.7211C5.15731 53.0268 4.68686 51.1374 4.6875 49.2188V37.5C4.6875 36.2568 5.18136 35.0645 6.06044 34.1854C6.93951 33.3064 8.1318 32.8125 9.375 32.8125H20.0063Z" fill="#505CFD"/>
<path d="M54.2062 60.0891C55.9852 60.8074 57.9135 61.0779 59.8215 60.8769C61.7296 60.6759 63.5591 60.0094 65.1494 58.9361C66.7397 57.8628 68.0422 56.4154 68.9424 54.7211C69.8426 53.0268 70.3131 51.1374 70.3124 49.2188V37.5C70.3124 36.2568 69.8186 35.0645 68.9395 34.1854C68.0604 33.3064 66.8681 32.8125 65.6249 32.8125H54.9937C55.7906 34.1906 56.2499 35.7891 56.2499 37.5H65.6249V49.2188C65.6253 50.3847 65.3357 51.5325 64.7823 52.5587C64.2288 53.5849 63.4288 54.4574 62.4544 55.0976C61.4799 55.7378 60.3615 56.1256 59.1999 56.2261C58.0383 56.3266 56.8699 56.1367 55.7999 55.6734C55.4484 57.225 54.9093 58.7063 54.2062 60.0891Z" fill="#505CFD"/>
<path d="M28.125 32.8125C26.8818 32.8125 25.6895 33.3064 24.8104 34.1854C23.9314 35.0645 23.4375 36.2568 23.4375 37.5V51.5625C23.4375 55.2921 24.9191 58.869 27.5563 61.5062C30.1935 64.1434 33.7704 65.625 37.5 65.625C41.2296 65.625 44.8065 64.1434 47.4437 61.5062C50.0809 58.869 51.5625 55.2921 51.5625 51.5625V37.5C51.5625 36.2568 51.0686 35.0645 50.1896 34.1854C49.3105 33.3064 48.1182 32.8125 46.875 32.8125H28.125ZM28.125 37.5H46.875V51.5625C46.875 54.0489 45.8873 56.4335 44.1291 58.1916C42.371 59.9498 39.9864 60.9375 37.5 60.9375C35.0136 60.9375 32.629 59.9498 30.8709 58.1916C29.1127 56.4335 28.125 54.0489 28.125 51.5625V37.5Z" fill="#505CFD"/>
</svg>
