<svg width="75" height="75" viewBox="0 0 75 75" fill="none" xmlns="http://www.w3.org/2000/svg">
<path d="M58.2715 19.0934C58.2398 19.4098 58.2211 19.7707 58.2129 20.1621L53.7199 22.3078C53.0906 22.2047 49.9699 22.3863 45.3152 20.0895C44.1352 19.507 42.982 19.1977 41.8746 19.1977C40.8725 19.1991 39.8849 19.438 38.993 19.8949C37.8176 19.6406 36.1242 18.9891 35.134 18.9914C32.8934 19.0031 27.7992 20.8277 26.3883 20.9836C25.0078 21.1348 23.5863 21.5145 22.1555 22.1191C19.5551 21.3621 16.2949 20.1258 14.5488 19.4426L2.34375 10.5469V39.1523L11.3133 43.4203C11.4434 43.268 11.5922 43.0336 11.7539 42.743L12.0316 42.8719C12.1676 43.2234 12.3176 43.5738 12.4816 43.9219C11.4973 45.5789 11.3801 47.4457 12.1664 49.0688C12.8402 50.4574 14.0953 51.4324 15.4934 51.7055C15.5695 52.5703 15.8602 53.407 16.35 54.1324C17.2289 55.4297 18.6258 56.2043 20.0895 56.2043C20.2219 56.2043 20.3543 56.1984 20.4855 56.1832C20.6941 56.7469 21 57.2719 21.3973 57.7266C22.2809 58.7426 23.5184 59.325 24.791 59.325C24.8848 59.325 24.9762 59.3227 25.0688 59.3156C25.2305 59.9297 25.5059 60.5109 25.8902 61.0289C26.775 62.2242 28.1402 62.9356 29.5441 62.9356C30.416 62.9356 31.2492 62.6684 31.984 62.168C33.4043 63.0797 34.6395 63.7207 35.7352 64.1145C36.2848 64.3383 36.8566 64.4531 37.4402 64.4531C38.8207 64.4531 40.1602 63.8086 41.1164 62.6812C41.4715 62.2617 41.7598 61.793 41.9707 61.2914C42.3838 61.4164 42.8129 61.4804 43.2445 61.4813C44.7117 61.4813 46.1027 60.7629 47.0648 59.5066C47.5219 58.9113 47.8528 58.229 48.0375 57.5016C48.1383 57.5086 48.2379 57.5121 48.3375 57.5121C50.0332 57.5121 51.6562 56.5172 52.5691 54.9152C53.0477 54.082 53.3017 53.1387 53.3062 52.1777C54.982 51.9281 56.4574 50.7363 57.1758 48.9984C57.8836 47.2863 57.6914 45.3973 56.7035 43.8223L61.268 41.25C61.3852 41.6508 61.5 42.0199 61.6113 42.3199L72.6562 36.443V12.4711L58.2715 19.0934ZM58.2703 22.6523C58.343 23.9203 58.4754 25.3535 58.6465 26.85C57.709 25.275 56.5254 24.5566 55.0559 24.1992L58.2703 22.6523ZM52.1437 50.4914C49.6266 49.6254 44.3871 43.466 44.3871 43.466H44.4902C45.0234 43.4285 46.1754 42.8672 47.468 43.1355C45.4383 41.3918 43.2059 42.8672 41.6859 41.9637C42.0387 43.0945 43.7344 43.4508 44.1691 43.4648L49.1895 49.3031C51.4629 51.9457 49.8797 55.2152 47.6004 55.7355C46.0711 54.9914 41.7527 49.8551 41.7527 49.8551C41.9004 49.8281 42.7758 49.5539 43.6676 49.6711C41.6086 48.1313 39.2742 49.4672 37.8891 48.5004C38.6742 50.4398 41.2605 49.943 41.5312 49.8961L44.2172 53.325C46.3664 56.0672 44.6777 59.2348 42.3949 59.6637C40.3711 58.9523 39.0574 56.4211 39.0574 56.4211C39.2613 56.3883 39.9434 56.0848 40.9137 56.2254C39.1875 54.7125 37.1777 56.0848 35.9695 55.2234C36.716 56.85 38.577 56.4797 38.6812 56.468C40.5422 59.3988 38.6121 62.4551 36.3059 62.5465H36.3035L36.3012 62.5477C34.916 62.3074 33.4652 61.2 31.827 60.0633C32.3895 59.4398 32.8863 58.3441 32.8863 58.3441C34.5316 55.3652 32.3965 52.7309 30.1922 52.957C31.9805 53.4457 33.3211 55.7285 31.9254 58.2633L31.3125 59.2945C30.6469 60.5074 29.6074 61.2398 28.8434 61.1496C27.6668 61.0066 26.0086 59.2887 26.7059 56.8652C26.9754 56.6191 29.5746 52.643 29.5746 52.643C31.3617 49.7648 29.3555 47.0098 27.1453 47.1035C28.9055 47.6977 30.1395 50.0578 28.6219 52.507L26.509 55.8012C25.7883 56.966 24.8555 57.6258 23.966 57.5039C22.5855 57.3164 21.6176 55.6324 21.8391 53.8945C21.8273 53.9051 23.3602 52.1906 23.3602 52.1906C25.3969 49.5293 23.6531 46.5574 21.4465 46.4016C23.1422 47.1914 24.1523 49.6805 22.4215 51.9457L21.6738 52.8621C20.8535 53.9379 19.8656 54.4852 19.0008 54.2695C17.4914 53.891 16.7062 51.0668 17.4199 50.2969C17.9812 49.691 19.5574 47.7727 19.5574 47.7727C21.593 45.1102 19.8516 42.1395 17.6426 41.9813C19.3395 42.7734 20.3496 45.2625 18.6187 47.5289L17.8711 48.443C17.0461 49.5281 16.0547 50.073 15.184 49.8516C13.3699 49.3922 12.4641 46.5914 14.1996 44.318C14.1996 44.318 13.6102 42.4453 13.3441 41.6449L12.4699 41.2395C14.5195 36.4641 17.6156 25.9242 17.7586 22.4227C19.268 22.9605 23.2523 24.1066 23.6754 24.109L23.673 24.1113C27.9621 22.7637 32.4574 22.9125 34.5082 22.1203C35.1727 21.8672 36.4945 21.8508 37.8961 22.6523C37.0207 23.4199 36.1934 24.334 35.3344 25.1859C33.2812 27.2238 25.6477 30.402 27.1195 33.7441C28.3898 36.6281 31.9676 39.5789 37.9688 34.9465L41.3438 34.4824L46.5926 37.0723L53.3191 43.9805C55.718 46.4391 54.3598 49.7766 52.1437 50.4914ZM53.8312 42.8801C53.0602 41.4387 50.6566 39.075 48.3879 37.1426L48.3738 37.1285C49.4203 37.1707 50.5184 35.4855 51.9375 35.3555C50.9461 34.5984 49.3031 35.4727 48.791 35.6109C45.968 36.3703 41.5805 32.8184 41.5805 32.8184L37.3828 33.423C37.3828 33.423 32.3906 39.5156 28.1848 34.4965C25.9008 31.7707 34.1777 28.2105 36.2168 26.1844C38.8289 23.5887 41.1562 20.4129 45.4535 22.5762C49.023 24.3762 50.4293 24.2648 55.2176 25.098C56.6449 25.3477 57.634 26.0016 58.6945 27.2777C59.1937 31.4777 60.0012 36.1359 60.7758 39.3773C60.3762 39.7137 56.9508 42.0176 53.8312 42.8801Z" fill="#505CFD"/>
</svg>
