<svg width="54" height="66" viewBox="0 0 54 66" fill="none" xmlns="http://www.w3.org/2000/svg">
<path d="M48.0734 48.5023C46.3839 46.4357 44.4097 44.749 42.2414 43.5194C45.2991 40.4917 47.2499 35.8719 47.2499 30.691C47.2499 21.5503 41.0129 14.0513 33.534 14.1915C26.1698 14.3318 20.2365 21.6658 20.2365 30.691C20.2365 35.8719 22.194 40.4917 25.245 43.5194C23.0763 44.7481 21.102 46.4349 19.413 48.5023C15.7276 53.0149 13.6351 58.9712 13.5001 65.3235C13.4983 65.4116 13.5109 65.4992 13.5372 65.5812C13.5636 65.6631 13.6031 65.7379 13.6534 65.8009C13.7037 65.8639 13.7639 65.914 13.8303 65.9482C13.8967 65.9824 13.968 66 14.0401 66H17.8201C18.1103 66 18.3533 65.7195 18.3601 65.3648C18.4883 60.5799 20.0745 56.1003 22.8623 52.7014C24.2888 50.9486 25.9856 49.5591 27.8545 48.6131C29.7234 47.6672 31.7272 47.1837 33.75 47.1906C37.8607 47.1906 41.7284 49.1457 44.6376 52.7014C47.4186 56.1003 49.0049 60.5799 49.1399 65.3648C49.1466 65.7195 49.3896 66 49.6799 66H53.4598C53.5319 66 53.6032 65.9824 53.6697 65.9482C53.7361 65.914 53.7962 65.8639 53.8465 65.8009C53.8968 65.7379 53.9363 65.6631 53.9627 65.5812C53.989 65.4992 54.0016 65.4116 53.9998 65.3235C53.8648 58.9712 51.7723 53.0149 48.0734 48.5023ZM33.75 41.2507C31.4415 41.2507 29.268 40.1535 27.6412 38.1571C26.8249 37.1671 26.18 35.9864 25.7451 34.6852C25.3102 33.3841 25.0942 31.9892 25.11 30.5838C25.1303 27.8779 26.0145 25.2627 27.5602 23.324C29.1802 21.2946 31.347 20.1643 33.6622 20.1313C35.9504 20.1066 38.1712 21.1956 39.8047 23.1508C41.4787 25.1554 42.3967 27.8366 42.3967 30.691C42.3967 33.5125 41.4989 36.1606 39.8654 38.1571C39.064 39.1412 38.1109 39.9214 37.0612 40.4524C36.0115 40.9834 34.886 41.2548 33.75 41.2507ZM16.8413 32.869C16.7806 32.1512 16.7468 31.4253 16.7468 30.691C16.7468 29.3793 16.8481 28.1006 17.0371 26.8549C17.0843 26.5579 16.9561 26.2527 16.7333 26.1289C15.8153 25.6257 14.9716 24.9327 14.2426 24.0582C13.3836 23.0403 12.7076 21.8146 12.2579 20.4595C11.8081 19.1045 11.5944 17.6496 11.6303 16.188C11.6911 13.5398 12.5618 11.0236 14.0806 9.12617C15.7478 7.03898 17.9888 5.90051 20.3715 5.93351C22.5248 5.95826 24.6038 6.97298 26.1765 8.77143C26.7098 9.38191 27.1688 10.0584 27.5535 10.7844C27.6885 11.0401 27.9517 11.1474 28.1812 11.0484C29.3692 10.5451 30.6247 10.1904 31.914 10.0254C32.292 9.97589 32.508 9.48091 32.3392 9.06842C30.1455 3.76382 25.6635 0.100933 20.4795 0.0019357C12.9938 -0.13831 6.75688 7.36072 6.75688 16.4932C6.75688 21.674 8.70761 26.2939 11.7653 29.3216C9.61886 30.5343 7.64112 32.209 5.92663 34.3044C2.22766 38.817 0.135168 44.7734 0.000168789 51.1339C-0.00163281 51.222 0.0110033 51.3096 0.0373329 51.3916C0.0636625 51.4736 0.103153 51.5483 0.153477 51.6113C0.2038 51.6744 0.26394 51.7245 0.330351 51.7586C0.396762 51.7928 0.468102 51.8104 0.540165 51.8104H4.32689C4.61714 51.8104 4.86014 51.5299 4.86689 51.1752C4.99514 46.3903 6.58138 41.9107 9.36911 38.5118C11.3536 36.0864 13.7836 34.4034 16.4363 33.5867C16.6996 33.5042 16.8751 33.199 16.8413 32.869Z" fill="#505CFD"/>
</svg>
