<svg width="71" height="64" viewBox="0 0 71 64" fill="none" xmlns="http://www.w3.org/2000/svg">
<path d="M35.496 18.2807C29.447 18.2063 23.6302 21.7597 21.4038 26.82C19.123 31.6888 20.3838 37.6816 24.4852 41.4589C28.4729 45.3286 35.0435 46.7546 40.5471 44.941C46.3144 43.1699 50.5514 38.0275 50.704 32.5288C51.0113 27.1868 47.4496 21.9047 42.087 19.6361C40.0407 18.7429 37.7692 18.278 35.496 18.2807ZM35.496 20.7807C41.0248 20.6863 46.264 24.3446 47.551 29.1908C48.9619 33.8476 46.5847 39.1575 41.9569 41.5975C37.2316 44.2707 30.5695 43.5583 26.6893 39.9379C22.5945 36.3771 21.8654 30.2164 25.0068 25.9461C27.2318 22.7603 31.3181 20.744 35.496 20.7807ZM39.428 23.9688L35.2713 30.7665C33.9874 30.8896 33.6824 32.6453 34.867 33.1135C35.6494 33.6031 36.2623 32.7888 36.9745 32.8168H43.3289V31.2543H36.9522L40.9461 24.723L39.428 23.9688ZM35.4892 9.03131L35.1942 9.03297L35.1834 9.03303L35.1727 9.03322L34.8781 9.03816L34.8674 9.03834L34.8566 9.03866L34.5624 9.04691L34.5517 9.04722L34.5409 9.04766L34.2473 9.05913L34.2365 9.05953L34.2258 9.06003L33.9326 9.07481L33.9219 9.07534L33.9112 9.07603L33.6185 9.09403L33.6079 9.09466L33.5972 9.09544L33.3051 9.11669L33.2944 9.11747L33.2837 9.11831L32.9922 9.14278L32.9815 9.14372L32.9709 9.14469L32.871 9.15422L32.5542 9.21166L32.2548 9.32103L31.9831 9.47869L31.7485 9.679L31.5594 9.915L31.422 10.1787L31.3413 10.4607L31.3202 10.7513L31.3592 11.0404L31.457 11.3179L31.6103 11.5744L31.8137 11.8006L32.0602 11.989L32.3411 12.1328L32.6468 12.2271L32.9666 12.2687L33.2348 12.2619L33.3247 12.2534L33.5964 12.2306L33.8621 12.2113L34.1344 12.1946L34.4067 12.1808L34.6797 12.1701L34.9526 12.1624L35.2261 12.1579L35.5 12.1563L35.7739 12.1579L36.0474 12.1624L36.3203 12.1701L36.5933 12.1808L36.8656 12.1946L37.1379 12.2113L37.4036 12.2306L37.6749 12.2534L37.9451 12.2791L38.2152 12.3078L38.4849 12.3395L38.7486 12.3735L39.017 12.4112L39.2848 12.4517L39.5506 12.4951L39.817 12.5415L40.0774 12.59L40.3421 12.6423L40.6071 12.6977L40.8649 12.7545L41.1273 12.8156L41.3837 12.8782L41.6423 12.9444L41.9029 13.0143L42.1563 13.0852L42.4135 13.1603L42.6662 13.2372L42.9211 13.3179L43.1766 13.402L43.4293 13.4883L43.6711 13.5739L43.9232 13.6664L44.17 13.7601L44.1816 13.7646L44.182 13.7637L44.4769 13.8511L44.7973 13.8891L45.1198 13.8729L45.4334 13.803L45.7273 13.6819L45.991 13.5137L46.2157 13.3043L46.3932 13.0609L46.5175 12.7922L46.5844 12.5072L46.5915 12.216L46.5384 11.9288L46.4271 11.6553L46.2615 11.4053L46.0473 11.1872L45.7919 11.0088L45.555 10.8953L45.5472 10.8923L45.5375 10.8885L45.5278 10.8847L45.2609 10.7834L45.2512 10.7797L45.2414 10.7761L44.9732 10.6777L44.9633 10.6741L44.9535 10.6706L44.684 10.5751L44.6742 10.5717L44.6643 10.5683L44.3934 10.4758L44.3835 10.4724L44.3736 10.4691L44.1014 10.3796L44.0916 10.3763L44.0815 10.3732L43.8083 10.2866L43.7982 10.2834L43.7882 10.2804L43.5137 10.1968L43.5037 10.1938L43.4936 10.1908L43.2179 10.1103L43.2079 10.1073L43.1978 10.1045L42.9209 10.027L42.9108 10.0242L42.9007 10.0214L42.6227 9.94694L42.6125 9.94419L42.6024 9.94163L42.3234 9.87016L42.3132 9.86753L42.303 9.86503L42.0229 9.7966L42.0127 9.79416L42.0024 9.79172L41.7213 9.72641L41.711 9.72403L41.7008 9.72178L41.4187 9.65953L41.4084 9.65719L41.398 9.65506L41.115 9.59588L41.1047 9.59372L41.0943 9.59166L40.8104 9.53563L40.8 9.53353L40.7896 9.53166L40.5047 9.47869L40.4943 9.47672L40.4839 9.47488L40.1982 9.4251L40.1878 9.42325L40.1773 9.42153L39.8907 9.37485L39.8803 9.37316L39.8698 9.37156L39.5824 9.32797L39.5719 9.32641L39.5615 9.32494L39.2733 9.28453L39.2628 9.28297L39.2522 9.28166L38.9634 9.24441L38.9528 9.24306L38.9422 9.24181L38.6526 9.20775L38.6421 9.2065L38.6315 9.20534L38.3412 9.17453L38.3306 9.17338L38.32 9.17241L38.0291 9.14469L38.0185 9.14372L38.0078 9.14278L37.7163 9.11831L37.7056 9.11747L37.6949 9.11666L37.4028 9.09541L37.3921 9.09463L37.3815 9.094L37.0888 9.07603L37.0781 9.07534L37.0674 9.07481L36.7742 9.06003L36.7635 9.05953L36.7528 9.05913L36.4591 9.04763L36.4483 9.04722L36.4376 9.04691L36.1434 9.03866L36.1327 9.03834L36.1219 9.03816L35.8273 9.03322L35.8166 9.03303L35.8058 9.03297L35.5108 9.03131L35.5 9.03125L35.4892 9.03131ZM24.1911 11.5121L23.877 11.5802L23.6306 11.6758L23.5106 11.7327L23.5013 11.7371L23.492 11.7417L23.237 11.8662L23.2276 11.8707L23.2185 11.8753L22.9651 12.0027L22.9558 12.0073L22.9467 12.012L22.6949 12.1422L22.6858 12.147L22.6766 12.1518L22.4267 12.2848L22.4175 12.2896L22.4084 12.2946L22.1601 12.4304L22.1511 12.4353L22.1421 12.4404L21.8956 12.5789L21.8865 12.584L21.8776 12.5892L21.6328 12.7305L21.6239 12.7357L21.615 12.7409L21.3721 12.885L21.3632 12.8903L21.3544 12.8956L21.1132 13.0426L21.1044 13.0479L21.0957 13.0533L20.8565 13.2029L20.8477 13.2084L20.8391 13.214L20.6016 13.3663L20.593 13.3719L20.5844 13.3776L20.349 13.5327L20.3404 13.5383L20.3318 13.5441L20.0983 13.7019L20.0898 13.7077L20.0814 13.7135L19.8498 13.874L19.8414 13.8798L19.8331 13.8858L19.6036 14.0489L19.5952 14.0549L19.5869 14.061L19.3595 14.2269L19.3512 14.2329L19.343 14.2391L19.1176 14.4076L19.1094 14.4138L19.1013 14.42L18.878 14.5912L18.8699 14.5974L18.8618 14.6038L18.6407 14.7776L18.6327 14.7839L18.6247 14.7904L18.4058 14.9669L18.3978 14.9733L18.3899 14.9799L18.1731 15.1589L18.1653 15.1655L18.1574 15.1721L17.943 15.3538L17.9351 15.3604L17.9274 15.3671L17.7152 15.5515L17.7074 15.5582L17.6998 15.5649L17.4899 15.7518L17.4822 15.7587L17.4747 15.7656L17.2674 15.9548L17.2598 15.9617L17.2523 15.9686L17.0478 16.1599L17.0404 16.1669L17.0331 16.174L16.8315 16.3673L16.8241 16.3743L16.8169 16.3815L16.6182 16.5768L16.6109 16.5839L16.6038 16.5911L16.408 16.7885L16.4009 16.7957L16.3939 16.8029L16.201 17.0023L16.194 17.0095L16.187 17.0168L15.9972 17.2181L15.9902 17.2254L15.9834 17.2328L15.7964 17.436L15.7896 17.4434L15.7829 17.4509L15.5989 17.6558L15.5921 17.6633L15.5855 17.6709L15.4045 17.8778L15.3979 17.8853L15.3914 17.8929L15.2133 18.1016L15.2069 18.1092L15.2005 18.1169L15.0254 18.3273L15.019 18.335L15.0127 18.3428L14.8407 18.555L14.8344 18.5628L14.8282 18.5706L14.6592 18.7845L14.653 18.7923L14.647 18.8002L14.481 19.0159L14.475 19.0238L14.469 19.0317L14.3061 19.249L14.3001 19.257L14.2942 19.265L14.1585 19.451L14.0068 19.7082L13.9107 19.9862L13.8736 20.2756L13.8966 20.5661L13.979 20.8477L14.118 21.1106L14.3087 21.3457L14.5445 21.5448L14.8172 21.701L15.1173 21.8089L15.4344 21.8647L15.7575 21.8665L16.0754 21.8142L16.3769 21.7096L16.6517 21.5564L16.8901 21.3598L17.0545 21.1688L17.1844 20.9909L17.3348 20.7903L17.4904 20.5881L17.6437 20.394L17.805 20.1949L17.9662 20.0011L18.133 19.8056L18.2993 19.6156L18.4715 19.4237L18.6437 19.2367L18.8209 19.0488L18.9988 18.865L19.1811 18.6812L19.3667 18.4988L19.5521 18.3209L19.7404 18.1448L19.931 17.9708L20.1268 17.7965L20.3248 17.6245L20.522 17.4573L20.7241 17.2903L20.9287 17.1255L21.1318 16.9657L21.3406 16.8057L21.5482 16.6504L21.7603 16.4956L21.9725 16.3448L22.186 16.1968L22.404 16.0495L22.6211 15.9064L22.8399 15.766L23.0606 15.6279L23.2867 15.4902L23.5108 15.3573L23.7368 15.2268L23.9643 15.0989L24.1948 14.9728L24.4256 14.85L24.6619 14.7277L24.8956 14.6103L25.135 14.4935L25.2442 14.4417L25.5149 14.2827L25.7482 14.0812L25.9359 13.8441L26.0716 13.5798L26.1505 13.2974L26.1698 13.0067L26.1289 12.7177L26.0294 12.4407L25.8745 12.1851L25.6696 11.9598L25.422 11.7728L25.1401 11.6304L24.8338 11.5377L24.5138 11.4978L24.1911 11.5121ZM52.0675 15.3353L51.7533 15.4031L51.4585 15.5223L51.1934 15.6888L50.9671 15.8967L50.7876 16.1389L50.6611 16.4068L50.5919 16.6913L50.5825 16.9824L50.6333 17.2701L50.7423 17.5443L50.9059 17.7953L51.0791 17.98L51.2596 18.1448L51.4479 18.3209L51.6334 18.4988L51.8188 18.6812L52.0012 18.865L52.1791 19.0488L52.3563 19.2367L52.5286 19.4237L52.7007 19.6156L52.867 19.8056L53.0338 20.0011L53.195 20.1949L53.3563 20.3941L53.5096 20.5881L53.6652 20.7903L53.8156 20.9908L53.9655 21.1963L54.1101 21.3998L54.252 21.6051L54.391 21.8115L54.5293 22.023L54.6626 22.2323L54.794 22.4448L54.9214 22.657L55.0448 22.8684L55.1685 23.087L55.2861 23.301L55.404 23.5222L55.5166 23.7407L55.6255 23.9584L55.7342 24.1832L55.8378 24.4049L55.9397 24.6304L56.0366 24.8527L56.1329 25.0818L56.2256 25.3106L56.3134 25.536L56.3999 25.7669L56.4838 26.0002L56.5624 26.2282L56.6396 26.4621L56.683 26.6L56.7999 26.8715L56.9706 27.1188L57.1893 27.3332L57.4484 27.5073L57.7387 27.635L58.0503 27.7119L58.3724 27.7353L58.6937 27.7045L59.003 27.6206L59.2897 27.4862L59.5437 27.3063L59.7563 27.0869L59.92 26.8359L60.0293 26.5618L60.0801 26.2742L60.0709 25.983L60.0178 25.746L59.9711 25.5979L59.9682 25.5887L59.9652 25.5796L59.8825 25.3291L59.8796 25.3199L59.8764 25.3108L59.7904 25.0612L59.7873 25.0522L59.784 25.043L59.6946 24.7945L59.6914 24.7855L59.688 24.7764L59.5953 24.5289L59.5919 24.5199L59.5883 24.5109L59.4923 24.2645L59.4888 24.2556L59.4852 24.2466L59.3859 24.0013L59.3822 23.9924L59.3785 23.9835L59.2759 23.7393L59.2721 23.7304L59.2683 23.7216L59.1623 23.4786L59.1585 23.4698L59.1545 23.4609L59.0453 23.2191L59.0413 23.2103L59.0372 23.2015L58.9247 22.9609L58.9207 22.9522L58.9164 22.9434L58.8008 22.7041L58.7965 22.6954L58.7921 22.6866L58.6732 22.4486L58.6688 22.4399L58.6644 22.4313L58.5422 22.1945L58.5378 22.1859L58.5332 22.1773L58.4078 21.9419L58.4033 21.9333L58.3985 21.9248L58.2699 21.6907L58.2653 21.6821L58.2605 21.6737L58.1287 21.441L58.1239 21.4324L58.119 21.424L57.984 21.1928L57.9792 21.1843L57.9741 21.1759L57.836 20.9461L57.8309 20.9377L57.8258 20.9293L57.6845 20.701L57.6794 20.6926L57.6741 20.6843L57.5297 20.4575L57.5245 20.4492L57.5191 20.441L57.3716 20.2156L57.3662 20.2073L57.3607 20.1992L57.2101 19.9754L57.2046 19.9672L57.199 19.9591L57.0453 19.7369L57.0397 19.7288L57.0339 19.7207L56.8771 19.5001L56.8714 19.492L56.8656 19.484L56.7057 19.265L56.6998 19.257L56.6938 19.249L56.5309 19.0317L56.525 19.0238L56.5189 19.0159L56.3529 18.8002L56.3469 18.7923L56.3408 18.7845L56.1717 18.5706L56.1655 18.5628L56.1593 18.555L55.9872 18.3428L55.9809 18.335L55.9746 18.3273L55.7995 18.1169L55.7931 18.1092L55.7866 18.1016L55.6085 17.8929L55.602 17.8853L55.5954 17.8778L55.4144 17.6709L55.4078 17.6633L55.401 17.6558L55.2171 17.4509L55.2104 17.4434L55.2035 17.436L55.0166 17.2328L55.0097 17.2254L55.0028 17.2181L54.8129 17.0168L54.8059 17.0095L54.7989 17.0023L54.606 16.8029L54.599 16.7957L54.5919 16.7885L54.3962 16.5911L54.389 16.5839L54.3817 16.5768L54.1831 16.3815L54.1758 16.3743L54.1684 16.3673L53.9669 16.174L53.9595 16.1669L53.9521 16.1599L53.7476 15.9687L53.7402 15.9617L53.7326 15.9548L53.5456 15.7842L53.2982 15.5969L53.0164 15.4543L52.7102 15.3613L52.3902 15.3212L52.0675 15.3353ZM12.0276 26.2699L11.7109 26.3272L11.4114 26.4365L11.1396 26.594L10.905 26.7942L10.7157 27.0302L10.5782 27.2938L10.507 27.5269L10.4559 27.7651L10.4538 27.7745L10.4519 27.7839L10.4001 28.0422L10.3982 28.0517L10.3965 28.0611L10.3481 28.3202L10.3464 28.3296L10.3447 28.3391L10.2999 28.5988L10.2983 28.6083L10.2967 28.6178L10.2554 28.8782L10.2539 28.8877L10.2526 28.8972L10.2148 29.1583L10.2134 29.1678L10.2121 29.1773L10.1779 29.439L10.1766 29.4486L10.1755 29.4581L10.1449 29.7203L10.1437 29.7299L10.1427 29.7395L10.1156 30.0023L10.1146 30.0119L10.1137 30.0215L10.0901 30.2849L10.0893 30.2944L10.0886 30.3041L10.0686 30.5679L10.0679 30.5776L10.0672 30.5872L10.0509 30.8515L10.0503 30.8612L10.0498 30.8708L10.0371 31.1356L10.0367 31.1452L10.0363 31.1549L10.0272 31.4201L10.0268 31.4298L10.0266 31.4394L10.0211 31.705L10.021 31.7147L10.0209 31.7244L10.019 31.9903V32.0098L10.0209 32.2757L10.021 32.2854L10.0211 32.2951L10.0266 32.5607L10.0268 32.5703L10.0272 32.58L10.0363 32.8452L10.0367 32.8548L10.0371 32.8645L10.0498 33.1293L10.0503 33.1389L10.0509 33.1486L10.0672 33.4129L10.0679 33.4226L10.0686 33.4322L10.0886 33.696L10.0893 33.7056L10.0901 33.7153L10.1137 33.9786L10.1146 33.9882L10.1156 33.9978L10.1427 34.2606L10.1437 34.2702L10.1449 34.2797L10.1755 34.542L10.1766 34.5516L10.1779 34.5611L10.2121 34.8228L10.2134 34.8323L10.2148 34.8419L10.2526 35.1029L10.254 35.1124L10.2554 35.122L10.2967 35.3823L10.2983 35.3918L10.2999 35.4013L10.3447 35.661L10.3463 35.6705L10.3481 35.68L10.3965 35.939L10.3982 35.9484L10.4001 35.9579L10.4519 36.2162L10.4538 36.2256L10.4559 36.2351L10.5112 36.4926L10.5131 36.5019L10.5153 36.5114L10.5741 36.7681L10.5762 36.7775L10.5785 36.7869L10.6407 37.0428L10.6429 37.0521L10.6454 37.0615L10.711 37.3166L10.7134 37.3259L10.7159 37.3352L10.785 37.5895L10.7875 37.5988L10.7901 37.608L10.8627 37.8614L10.8653 37.8706L10.8681 37.8798L10.9439 38.1323L10.9467 38.1415L10.9496 38.1507L11.0289 38.4022L11.0318 38.4114L11.0348 38.4205L11.1175 38.6711L11.1204 38.6803L11.1236 38.6893L11.2096 38.9388L11.2127 38.948L11.216 38.9571L11.2513 39.0553L11.3791 39.3228L11.5598 39.5642L11.7871 39.7713L12.053 39.9367L12.3484 40.0547L12.6629 40.1213L12.9857 40.1342L13.3055 40.0927L13.6112 39.9985L13.8923 39.8549L14.1388 39.6666L14.3424 39.4404L14.4958 39.1842L14.5938 38.9066L14.633 38.6175L14.6119 38.3269L14.5492 38.0918L14.5162 37.9999L14.4376 37.7719L14.3605 37.538L14.2876 37.3067L14.2168 37.0712L14.1508 36.8408L14.0849 36.598L14.025 36.3648L13.9669 36.1261L13.9134 35.8923L13.8618 35.6523L13.8134 35.4108L13.7685 35.1703L13.7276 34.9332L13.6884 34.6858L13.6539 34.4476L13.6221 34.2047L13.5935 33.9606L13.5687 33.7209L13.5464 33.4711L13.5282 33.2311L13.513 32.9854L13.501 32.735L13.4927 32.4937L13.4876 32.247L13.4859 32.0001L13.4876 31.7532L13.4927 31.5066L13.501 31.2652L13.513 31.0144L13.5282 30.7688L13.5464 30.5286L13.5688 30.2788L13.5935 30.0396L13.622 29.796L13.654 29.552L13.6884 29.3143L13.7275 29.0669L13.7683 28.8307L13.8136 28.5885L13.8617 28.3486L13.9106 28.1207L13.9421 27.8309L13.9135 27.5408L13.8256 27.2605L13.6815 26.9998L13.4863 26.7678L13.2467 26.5724L12.971 26.4205L12.6689 26.3174L12.3507 26.2666L12.0276 26.2699ZM58.7001 33.8618L58.3859 33.9296L58.091 34.0488L57.8258 34.2152L57.5995 34.4231L57.42 34.6652L57.2934 34.9332L57.2336 35.1618L57.2331 35.1617L57.2319 35.1684V35.1693L57.1868 35.4108L57.1384 35.6523L57.0868 35.8923L57.0333 36.1261L56.9752 36.3648L56.9153 36.598L56.8494 36.8408L56.7834 37.0712L56.7126 37.3067L56.6397 37.538L56.5626 37.7719L56.484 38L56.4007 38.2318L56.3142 38.4627L56.2258 38.6895L56.1331 38.9183L56.0375 39.1458L55.9391 39.3713L55.8373 39.5968L55.7343 39.8169L55.6265 40.04L55.5168 40.2595L55.4052 40.476L55.2873 40.6972L55.1687 40.9131L55.0449 41.1317L54.9203 41.3452L54.7941 41.5552L54.6615 41.7698L54.5282 41.9792L54.3912 42.1886L54.2523 42.3951L54.1104 42.6002L53.9657 42.8038L53.8173 43.0071L53.6654 43.2098L53.5098 43.412L53.3565 43.6062L53.1953 43.8051L53.034 43.999L52.8652 44.1968L52.7764 44.2982L52.6008 44.5427L52.4786 44.8123L52.414 45.0977L52.4093 45.3889L52.4646 45.6758L52.578 45.9485L52.7456 46.1975L52.9615 46.4141L53.2184 46.5909L53.5071 46.7216L53.8177 46.8017L54.1394 46.8285L54.4612 46.801L54.7715 46.7202L55.0599 46.5888L55.3162 46.4115L55.4982 46.2338L55.5957 46.1224L55.6023 46.1148L55.6088 46.1072L55.7869 45.8985L55.7933 45.8909L55.7997 45.8833L55.9748 45.6728L55.9812 45.6651L55.9875 45.6574L56.1595 45.4451L56.1658 45.4374L56.172 45.4296L56.341 45.2156L56.3472 45.2078L56.3532 45.1999L56.5192 44.9842L56.5252 44.9763L56.5312 44.9684L56.6941 44.7511L56.7001 44.7431L56.7059 44.7351L56.8658 44.5161L56.8717 44.5081L56.8773 44.5001L57.0341 44.2794L57.0399 44.2714L57.0455 44.2633L57.1992 44.041L57.2049 44.0329L57.2103 44.0247L57.3609 43.8009L57.3664 43.7928L57.3718 43.7845L57.5194 43.5592L57.5247 43.5509L57.53 43.5426L57.6744 43.3158L57.6796 43.3074L57.6848 43.2992L57.826 43.0708L57.8312 43.0624L57.8363 43.054L57.9743 42.8242L57.9794 42.8158L57.9843 42.8073L58.1192 42.5761L58.1241 42.5676L58.129 42.5592L58.2607 42.3264L58.2656 42.3179L58.2702 42.3094L58.3988 42.0753L58.4035 42.0668L58.408 42.0583L58.5335 41.8228L58.538 41.8142L58.5425 41.8056L58.6647 41.5688L58.6691 41.5602L58.6734 41.5514L58.7924 41.3134L58.7967 41.3048L58.801 41.296L58.9167 41.0567L58.9209 41.0479L58.925 41.0392L59.0374 40.7986L59.0416 40.7898L59.0456 40.781L59.1547 40.5392L59.1587 40.5304L59.1626 40.5215L59.2685 40.2785L59.2724 40.2697L59.2761 40.2608L59.3787 40.0166L59.3825 40.0077L59.3862 39.9988L59.4855 39.7535L59.4891 39.7445L59.4926 39.7355L59.5886 39.4892L59.5921 39.4802L59.5955 39.4711L59.6882 39.2236L59.6916 39.2147L59.6949 39.2056L59.7843 38.957L59.7875 38.948L59.7906 38.9388L59.8766 38.6893L59.8798 38.6803L59.8828 38.6711L59.9655 38.4205L59.9684 38.4114L59.9714 38.4022L60.0507 38.1507L60.0536 38.1415L60.0564 38.1323L60.1322 37.8798L60.135 37.8706L60.1376 37.8614L60.2101 37.608L60.2127 37.5988L60.2152 37.5895L60.2843 37.3352L60.2868 37.3259L60.2892 37.3166L60.3549 37.0615L60.3573 37.0521L60.3595 37.0428L60.4218 36.7869L60.424 36.7775L60.4261 36.7681L60.4849 36.5114L60.487 36.502L60.489 36.4926L60.5443 36.2351L60.5464 36.2256L60.5483 36.2162L60.6001 35.9579L60.602 35.9484L60.6037 35.939L60.6521 35.68L60.6539 35.6705L60.6555 35.661L60.6576 35.6489L60.6773 35.3582L60.6368 35.0693L60.5376 34.7921L60.3829 34.5364L60.1784 34.311L59.9309 34.1237L59.6492 33.981L59.3431 33.888L59.023 33.8478L58.7001 33.8618ZM16.823 44.1663L16.5178 44.2621L16.2377 44.4073L15.9924 44.5968L15.7903 44.824L15.6385 45.0811L15.5423 45.3591L15.505 45.6484L15.528 45.939L15.6103 46.2206L15.7492 46.4835L15.904 46.681L15.9834 46.7673L15.9902 46.7747L15.9972 46.7821L16.187 46.9832L16.194 46.9906L16.201 46.9979L16.3939 47.1972L16.4009 47.2044L16.408 47.2116L16.6038 47.4089L16.611 47.4161L16.6182 47.4233L16.8169 47.6186L16.8241 47.6258L16.8315 47.6328L17.0331 47.8261L17.0404 47.8332L17.0478 47.8402L17.2523 48.0314L17.2598 48.0384L17.2674 48.0453L17.4747 48.2345L17.4822 48.2414L17.4899 48.2483L17.6998 48.4351L17.7074 48.442L17.7152 48.4487L17.9274 48.6329L17.9351 48.6397L17.943 48.6463L18.1574 48.828L18.1653 48.8346L18.1731 48.8412L18.3899 49.0203L18.3978 49.0268L18.4058 49.0332L18.6247 49.2097L18.6326 49.2161L18.6407 49.2225L18.8618 49.3963L18.8699 49.4027L18.878 49.4089L19.1013 49.5801L19.1094 49.5863L19.1176 49.5925L19.343 49.7611L19.3512 49.7672L19.3595 49.7733L19.5869 49.9391L19.5952 49.9451L19.6036 49.9511L19.8331 50.1143L19.8414 50.1203L19.8498 50.1261L20.0814 50.2866L20.0898 50.2925L20.0983 50.2982L20.3318 50.456L20.3404 50.4618L20.349 50.4675L20.5844 50.6225L20.593 50.6282L20.6016 50.6338L20.8391 50.7861L20.8477 50.7917L20.8564 50.7971L21.0956 50.9467L21.1044 50.9522L21.1132 50.9576L21.3544 51.1045L21.3632 51.1098L21.3721 51.1151L21.615 51.2592L21.6239 51.2645L21.6328 51.2696L21.8776 51.411L21.8865 51.4161L21.8955 51.4212L22.1421 51.5597L22.1511 51.5648L22.1601 51.5698L22.4084 51.7055L22.4175 51.7105L22.4266 51.7154L22.6766 51.8483L22.6858 51.8532L22.6949 51.8579L22.9467 51.988L22.9558 51.9928L22.9651 51.9974L23.2185 52.1248L23.2277 52.1294L23.237 52.1339L23.492 52.2584L23.5013 52.2629L23.5106 52.2674L23.7673 52.3891L23.7766 52.3935L23.786 52.3979L24.0441 52.5166L24.0535 52.521L24.063 52.5252L24.3227 52.6411L24.3322 52.6453L24.3417 52.6494L24.6029 52.7625L24.6124 52.7665L24.6221 52.7706L24.8847 52.8807L24.8942 52.8847L24.9039 52.8886L25.168 52.9958L25.1776 52.9998L25.1873 53.0036L25.4528 53.1078L25.4625 53.1117L25.4722 53.1154L25.7392 53.2168L25.7488 53.2204L25.7586 53.224L26.0268 53.3224L26.0366 53.3261L26.0465 53.3295L26.3048 53.421L26.6152 53.5019L26.9369 53.5293L27.2586 53.5024L27.5692 53.4223L27.8579 53.2915L28.1147 53.1147L28.3306 52.8981L28.4981 52.649L28.6115 52.3763L28.6668 52.0894L28.662 51.7982L28.5974 51.5129L28.4751 51.2433L28.2994 50.9988L28.0765 50.788L27.8141 50.6181L27.5727 50.5125L27.3243 50.4246L27.0723 50.3321L26.8281 50.2393L26.5832 50.1431L26.3416 50.0451L26.0904 49.9397L25.8517 49.8364L25.612 49.7294L25.3717 49.6188L25.1349 49.5066L24.8996 49.3918L24.6618 49.2722L24.4294 49.1521L24.1987 49.0294L23.9679 48.9033L23.7406 48.7755L23.5107 48.6428L23.2866 48.5098L23.0641 48.3743L22.8434 48.2364L22.6211 48.0936L22.4005 47.9484L22.1827 47.8012L21.9693 47.6531L21.7604 47.5045L21.5482 47.3498L21.3374 47.1921L21.135 47.0368L20.9257 46.8723L20.7241 46.7097L20.5249 46.5451L20.3247 46.3754L20.1295 46.206L19.9309 46.0292L19.743 45.8577L19.5496 45.6768L19.3643 45.499L19.1788 45.3165L19.0012 45.1376L18.8209 44.9512L18.6437 44.7635L18.572 44.6856L18.3434 44.4798L18.0764 44.3158L17.7803 44.1992L17.4653 44.1343L17.1425 44.1232L16.823 44.1663ZM47.0117 49.0281L46.7006 49.1065L46.4583 49.2102L46.3384 49.2721L46.1004 49.3918L45.8651 49.5066L45.6283 49.6188L45.388 49.7295L45.1483 49.8364L44.9096 49.9397L44.6584 50.045L44.4168 50.1431L44.1719 50.2393L43.9277 50.332L43.6757 50.4245L43.4244 50.5136L43.1766 50.5982L42.9211 50.6823L42.6711 50.7614L42.4133 50.8399L42.1612 50.9136L41.8981 50.9873L41.6422 51.0558L41.3884 51.1208L41.1272 51.1846L40.8651 51.2455L40.6071 51.3024L40.3419 51.3579L40.0826 51.4092L39.8119 51.4595L39.5457 51.5059L39.2848 51.5484L39.0223 51.5882L38.7486 51.6266L38.4847 51.6606L38.215 51.6924L37.9504 51.7205L37.675 51.7468L37.4038 51.7695L37.1379 51.7888L36.8604 51.8059L36.5882 51.8195L36.3205 51.83L36.0474 51.8377L35.7657 51.8424L35.4446 51.8749L35.1358 51.9606L34.85 52.0964L34.5971 52.2777L34.386 52.4982L34.2239 52.7501L34.1165 53.0248L34.0675 53.3127L34.0787 53.6038L34.1496 53.8879L34.2777 54.1553L34.4586 54.3965L34.6861 54.6034L34.9523 54.7685L35.2478 54.8863L35.5624 54.9526L35.8301 54.9668L36.1219 54.9619L36.1326 54.9618L36.1434 54.9614L36.4376 54.9533L36.4483 54.9529L36.4591 54.9525L36.7527 54.941L36.7635 54.9406L36.7742 54.9401L37.0674 54.9253L37.0781 54.9247L37.0888 54.9241L37.3815 54.9061L37.3921 54.9054L37.4028 54.9047L37.6949 54.8834L37.7056 54.8827L37.7163 54.8818L38.0078 54.8573L38.0185 54.8564L38.0291 54.8554L38.3199 54.8278L38.3306 54.8267L38.3412 54.8256L38.6314 54.7947L38.6421 54.7936L38.6526 54.7924L38.9422 54.7583L38.9528 54.7571L38.9633 54.7557L39.2522 54.7184L39.2628 54.7171L39.2733 54.7156L39.5614 54.6752L39.5719 54.6738L39.5824 54.6722L39.8698 54.6286L39.8803 54.627L39.8907 54.6253L40.1773 54.5785L40.1878 54.5769L40.1982 54.5751L40.4839 54.5252L40.4943 54.5234L40.5047 54.5215L40.7896 54.4685L40.8 54.4665L40.8104 54.4645L41.0943 54.4084L41.1047 54.4063L41.115 54.4042L41.398 54.345L41.4084 54.3429L41.4187 54.3406L41.7007 54.2784L41.711 54.2761L41.7213 54.2737L42.0024 54.2084L42.0126 54.206L42.0228 54.2035L42.303 54.135L42.3132 54.1325L42.3233 54.13L42.6024 54.0585L42.6125 54.0559L42.6227 54.0532L42.9007 53.9787L42.9108 53.9759L42.9209 53.9731L43.1978 53.8956L43.2079 53.8928L43.2179 53.8898L43.4936 53.8093L43.5037 53.8063L43.5137 53.8033L43.7882 53.7197L43.7983 53.7167L43.8082 53.7135L44.0815 53.627L44.0916 53.6239L44.1014 53.6205L44.3736 53.531L44.3835 53.5278L44.3934 53.5243L44.6643 53.4319L44.6742 53.4284L44.684 53.425L44.9535 53.3295L44.9633 53.326L44.9732 53.3224L45.2414 53.224L45.2512 53.2204L45.2609 53.2167L45.5278 53.1153L45.5375 53.1116L45.5472 53.1078L45.8127 53.0035L45.8224 52.9997L45.832 52.9958L46.0962 52.8886L46.1058 52.8847L46.1153 52.8806L46.3779 52.7705L46.3876 52.7665L46.3971 52.7624L46.6583 52.6494L46.6678 52.6453L46.6773 52.641L46.937 52.5251L46.9465 52.5209L46.9559 52.5166L47.214 52.3978L47.2234 52.3935L47.2327 52.389L47.4894 52.2674L47.4987 52.2629L47.508 52.2584L47.763 52.1339L47.7724 52.1294L47.7815 52.1247L48.0349 51.9974L48.0442 51.9928L48.0533 51.988L48.1833 51.9208L48.4473 51.753L48.6722 51.5439L48.8502 51.3008L48.975 51.0322L49.0424 50.7473L49.0499 50.4562L48.9974 50.1689L48.8866 49.8953L48.7214 49.6449L48.5075 49.4266L48.2524 49.2479L47.965 49.1149L47.6551 49.0323L47.3336 49.003L47.0117 49.0281ZM35.4893 3.09381L35.1123 3.09597L35.1017 3.09603L35.0909 3.09622L34.7146 3.10247L34.7038 3.10269L34.693 3.103L34.3173 3.1135L34.3066 3.11381L34.2958 3.11422L33.9206 3.12891L33.91 3.12931L33.8992 3.12988L33.5247 3.14872L33.514 3.14928L33.5033 3.14991L33.1294 3.17288L33.1188 3.17356L33.108 3.17428L32.7349 3.20147L32.7243 3.20225L32.7136 3.20309L32.3412 3.23434L32.3305 3.23528L32.3199 3.23622L31.9483 3.27159L31.9377 3.27263L31.9271 3.27372L31.5563 3.31316L31.5457 3.31431L31.5351 3.31553L31.1652 3.35903L31.1546 3.36031L31.1441 3.36166L30.7751 3.40922L30.7646 3.41056L30.754 3.41209L30.386 3.46366L30.3755 3.46519L30.3649 3.46675L29.9979 3.52238L29.9875 3.52394L29.9769 3.52569L29.6109 3.58538L29.6005 3.58706L29.59 3.58891L29.225 3.65256L29.2146 3.65441L29.2042 3.65628L28.8404 3.72397L28.83 3.72584L28.8196 3.72794L28.4569 3.79953L28.4465 3.80163L28.4362 3.80375L28.0746 3.87938L28.0643 3.8815L28.054 3.88378L27.6937 3.96338L27.6834 3.96563L27.6731 3.968L27.3322 4.04722L27.0282 4.14591L26.7498 4.29372L26.5067 4.48559L26.3073 4.71475L26.1585 4.97331L26.0656 5.25225L26.0317 5.54184L26.0581 5.83216L26.1437 6.11297L26.2856 6.37463L26.479 6.60797L26.717 6.80484L26.9915 6.95853L27.2928 7.06366L27.6105 7.11656L27.9336 7.11531L28.1979 7.07322L28.5294 6.99619L28.8668 6.92172L29.2091 6.85009L29.5525 6.78234L29.8971 6.71828L30.2364 6.65909L30.584 6.60241L30.9252 6.55069L31.2787 6.50109L31.6225 6.45678L31.9725 6.41563L32.3225 6.37841L32.674 6.34497L33.0261 6.31541L33.3783 6.28984L33.7316 6.26816L34.0852 6.25041L34.4397 6.23656L34.7889 6.22678L35.1442 6.22084L35.5 6.21884L35.8558 6.22088L36.2111 6.22681L36.5603 6.23656L36.9148 6.25041L37.2684 6.26816L37.6217 6.28984L37.9739 6.31541L38.326 6.34494L38.6775 6.37838L39.0275 6.41563L39.3775 6.45678L39.7213 6.50109L40.0748 6.55069L40.416 6.60241L40.7636 6.65909L41.1029 6.71831L41.4475 6.78234L41.7558 6.84319L42.0765 6.87875L42.3989 6.86L42.7119 6.78769L43.0045 6.66425L43.2667 6.494L43.4892 6.28288L43.6644 6.03813L43.7862 5.76844L43.8503 5.48294L43.8546 5.19169L43.7988 4.90481L43.6849 4.63231L43.5169 4.38353L43.3006 4.16722L43.0435 3.99075L42.7546 3.86044L42.4977 3.79056L42.1804 3.72794L42.17 3.72588L42.1596 3.724L41.7958 3.65628L41.7854 3.65441L41.775 3.65256L41.4099 3.58891L41.3995 3.58709L41.3891 3.58538L41.023 3.52569L41.0126 3.52397L41.0021 3.52241L40.6351 3.46678L40.6245 3.46522L40.614 3.46366L40.246 3.41209L40.2354 3.41056L40.2249 3.40922L39.8559 3.36169L39.8454 3.36034L39.8348 3.35906L39.4649 3.31553L39.4543 3.31428L39.4437 3.31316L39.0729 3.27372L39.0623 3.27263L39.0517 3.27159L38.6801 3.23625L38.6695 3.23528L38.6588 3.23434L38.2864 3.20309L38.2757 3.20225L38.2651 3.20147L37.8919 3.17428L37.8813 3.17356L37.8706 3.17291L37.4967 3.14988L37.486 3.14925L37.4753 3.14872L37.1008 3.12988L37.0901 3.12931L37.0793 3.12888L36.7042 3.11425L36.6935 3.11381L36.6827 3.1135L36.307 3.103L36.2962 3.10269L36.2855 3.1025L35.9091 3.09622L35.8984 3.09603L35.8876 3.09597L35.5108 3.09381L35.5 3.09375L35.4893 3.09381ZM53.2464 8.40334L52.9303 8.46375L52.6322 8.576L52.3624 8.73616L52.1302 8.93866L51.9437 9.17653L51.8094 9.44147L51.7321 9.72419L51.7142 10.015L51.7566 10.3037L51.8577 10.5804L52.0139 10.8353L52.22 11.0597L52.4237 11.217L52.515 11.2772L52.7985 11.4687L53.0725 11.6587L53.3537 11.8587L53.6264 12.0575L53.8964 12.2595L54.1666 12.4667L54.4347 12.6775L54.6939 12.8865L54.9591 13.1056L55.216 13.3233L55.47 13.5439L55.724 13.77L55.9722 13.9965L56.2197 14.228L56.4635 14.4619L56.699 14.6934L56.9361 14.9323L57.1698 15.1738L57.397 15.4145L57.6238 15.6609L57.8444 15.9067L58.0615 16.1546L58.2796 16.4103L58.4896 16.6628L58.6959 16.9173L58.8986 17.1738L59.0979 17.4326L59.2958 17.6967L59.4877 17.9597L59.6759 18.2244L59.8627 18.4945L60.0458 18.7666L60.2215 19.035L60.3949 19.3075L60.5643 19.5814L60.7323 19.8611L60.8931 20.1367L61.0513 20.416L61.1321 20.5629L61.3018 20.8108L61.5196 21.0258L61.7779 21.2008L62.0678 21.3295L62.379 21.4075L62.701 21.432L63.0224 21.4022L63.3321 21.3193L63.6194 21.1859L63.8741 21.0068L64.0876 20.7882L64.2524 20.5377L64.3627 20.2639L64.4148 19.9765L64.4068 19.6853L64.3389 19.4006L64.2389 19.1762L64.155 19.0234L64.1502 19.0149L64.1454 19.0064L63.9772 18.7092L63.9724 18.7007L63.9674 18.6923L63.795 18.3969L63.7902 18.3884L63.7851 18.38L63.6087 18.0864L63.6036 18.078L63.5985 18.0697L63.4181 17.778L63.4129 17.7697L63.4076 17.7614L63.2232 17.4715L63.2179 17.4633L63.2125 17.455L63.0242 17.1671L63.0187 17.1589L63.0132 17.1508L62.8209 16.8649L62.8153 16.8567L62.8098 16.8486L62.6134 16.5647L62.6078 16.5566L62.602 16.5485L62.4017 16.2667L62.396 16.2586L62.3901 16.2506L62.1859 15.9708L62.1801 15.9628L62.1742 15.9549L61.9661 15.6773L61.9601 15.6693L61.954 15.6614L61.742 15.3859L61.7359 15.3781L61.7298 15.3703L61.5139 15.097L61.5077 15.0891L61.5014 15.0814L61.2816 14.8103L61.2754 14.8026L61.269 14.7949L61.0454 14.5261L61.039 14.5184L61.0325 14.5108L60.8051 14.2442L60.7985 14.2366L60.7919 14.229L60.5607 13.9648L60.5541 13.9573L60.5474 13.9498L60.3123 13.6879L60.3056 13.6804L60.2988 13.673L60.06 13.4136L60.0531 13.4061L60.0462 13.3988L59.8036 13.1418L59.7967 13.1344L59.7897 13.1272L59.5433 12.8726L59.5363 12.8653L59.5292 12.8581L59.279 12.606L59.2719 12.5988L59.2647 12.5918L59.0109 12.3422L59.0036 12.3351L58.9963 12.328L58.7388 12.0811L58.7315 12.074L58.724 12.067L58.4628 11.8227L58.4554 11.8158L58.4478 11.8089L58.183 11.5672L58.1754 11.5603L58.1678 11.5534L57.8996 11.3147L57.892 11.3078L57.8843 11.3012L57.6132 11.0658L57.6054 11.059L57.5976 11.0524L57.3236 10.8203L57.3158 10.8137L57.3079 10.8071L57.0311 10.5784L57.0232 10.5718L57.0152 10.5654L56.7356 10.34L56.7276 10.3336L56.7195 10.3272L56.4372 10.1052L56.429 10.0988L56.4209 10.0926L56.1358 9.87391L56.1276 9.86763L56.1194 9.86147L55.8316 9.64619L55.8234 9.6401L55.815 9.63397L55.5245 9.42213L55.5162 9.4161L55.5078 9.41009L55.2147 9.20166L55.2064 9.19569L55.1979 9.18984L54.9022 8.98481L54.8937 8.97894L54.8852 8.97322L54.587 8.77166L54.5785 8.76588L54.5699 8.76025L54.4691 8.69384L54.1916 8.54469L53.8882 8.44453L53.5695 8.39688L53.2464 8.40334ZM16.4055 9.03194L16.0911 9.09913L15.796 9.21784L15.5732 9.3525L15.4922 9.41009L15.4838 9.4161L15.4755 9.42213L15.185 9.634L15.1766 9.6401L15.1684 9.64619L14.8806 9.86147L14.8723 9.86763L14.8642 9.87391L14.5791 10.0925L14.571 10.0988L14.5628 10.1052L14.2805 10.3272L14.2724 10.3336L14.2644 10.34L13.9848 10.5654L13.9768 10.5718L13.9689 10.5784L13.6921 10.8072L13.6842 10.8137L13.6764 10.8203L13.4024 11.0524L13.3946 11.059L13.3869 11.0658L13.1158 11.3012L13.108 11.3079L13.1004 11.3147L12.8322 11.5534L12.8246 11.5603L12.817 11.5671L12.5522 11.8088L12.5446 11.8157L12.5372 11.8227L12.276 12.067L12.2685 12.074L12.2612 12.0811L12.0037 12.328L11.9963 12.3351L11.9891 12.3422L11.7353 12.5918L11.728 12.5988L11.721 12.606L11.4708 12.8581L11.4637 12.8653L11.4567 12.8726L11.2103 13.1272L11.2033 13.1344L11.1964 13.1418L10.9538 13.3988L10.9469 13.4061L10.94 13.4136L10.7012 13.673L10.6944 13.6804L10.6877 13.6879L10.4526 13.9498L10.4459 13.9573L10.4393 13.9648L10.208 14.229L10.2014 14.2366L10.1949 14.2442L9.96753 14.5108L9.96101 14.5184L9.9546 14.5261L9.73099 14.7949L9.72464 14.8026L9.71833 14.8103L9.49854 15.0814L9.4923 15.0891L9.48609 15.097L9.27021 15.3703L9.26408 15.3781L9.25798 15.3859L9.04598 15.6614L9.03988 15.6693L9.03392 15.6773L8.82584 15.9549L8.81988 15.9628L8.81405 15.9708L8.60986 16.2506L8.60397 16.2586L8.59828 16.2667L8.39797 16.5485L8.39221 16.5566L8.3866 16.5647L8.19024 16.8486L8.18469 16.8567L8.17914 16.8649L7.98674 17.1508L7.98129 17.1589L7.97585 17.1671L7.7875 17.455L7.78209 17.4633L7.77679 17.4715L7.59235 17.7614L7.58715 17.7697L7.58195 17.778L7.40154 18.0697L7.39641 18.078L7.39131 18.0864L7.21492 18.38L7.20986 18.3884L7.20501 18.3969L7.03257 18.6923L7.02765 18.7007L7.02283 18.7092L6.85459 19.0064L6.84977 19.0149L6.84502 19.0234L6.68083 19.3225L6.67608 19.331L6.67157 19.3396L6.51134 19.6403L6.50683 19.6489L6.50232 19.6575L6.34628 19.96L6.34188 19.9686L6.33748 19.9773L6.24734 20.1578L6.14264 20.4333L6.09654 20.7216L6.11065 21.0126L6.18431 21.2961L6.31512 21.5624L6.49851 21.8023L6.72801 22.0072L6.99582 22.1702L7.29248 22.2855L7.60771 22.3493L7.93064 22.3592L8.24994 22.3149L8.55467 22.218L8.83409 22.0717L9.07854 21.8813L9.27951 21.6533L9.4083 21.4411L9.49407 21.2693L9.64279 20.9813L9.79325 20.6989L9.94877 20.4159L10.1069 20.1367L10.2677 19.8611L10.4357 19.5814L10.6051 19.3075L10.7785 19.035L10.9542 18.7666L11.1373 18.4945L11.3241 18.2244L11.5123 17.9597L11.7041 17.6967L11.9021 17.4327L12.1014 17.1738L12.3041 16.9173L12.5104 16.6627L12.7204 16.4102L12.9385 16.1546L13.1555 15.9067L13.3762 15.6609L13.6029 15.4145L13.8302 15.1738L14.0639 14.9323L14.301 14.6934L14.5365 14.4619L14.7803 14.228L15.0278 13.9965L15.276 13.77L15.53 13.5439L15.784 13.3233L16.0409 13.1056L16.3061 12.8865L16.5653 12.6775L16.8334 12.4667L17.1036 12.2595L17.3736 12.0575L17.6465 11.8585L17.7205 11.8058L17.9544 11.605L18.1429 11.3684L18.2794 11.1044L18.3591 10.8222L18.3794 10.5316L18.3396 10.2426L18.2408 9.96522L18.0867 9.70925L17.8826 9.48347L17.6356 9.29578L17.3542 9.15266L17.0482 9.05916L16.7282 9.01838L16.4055 9.03194ZM65.5374 29.1761L65.224 29.247L64.9307 29.3691L64.6676 29.5382L64.4438 29.7483L64.2673 29.9922L64.144 30.2614L64.0783 30.5465L64.0691 30.7882L64.0812 31.0394L64.0922 31.3593L64.0989 31.6794L64.101 32.0001L64.0989 32.3206L64.0922 32.6408L64.0812 32.9606L64.0658 33.2798L64.046 33.5988L64.0219 33.9168L63.9934 34.2353L63.9612 34.5474L63.9242 34.8637L63.8827 35.1804L63.8371 35.4951L63.7872 35.8098L63.7339 36.1183L63.6753 36.4323L63.6128 36.7439L63.5468 37.0515L63.4757 37.3621L63.4007 37.6707L63.3223 37.9758L63.2374 38.288L63.151 38.59L63.0609 38.8898L62.9646 39.1955L62.8646 39.4985L62.7605 39.8005L62.654 40.0968L62.5413 40.3976L62.4244 40.6974L62.3067 40.9881L62.1818 41.2852L62.0574 41.5706L61.9234 41.8673L61.7885 42.1558L61.6477 42.4471L61.5059 42.7308L61.3572 43.0189L61.2078 43.2993L61.0513 43.5842L60.8896 43.8696L60.7702 44.1403L60.7086 44.4262L60.7068 44.7174L60.7651 45.0038L60.8814 45.2757L61.0515 45.5232L61.2697 45.738L61.5283 45.9125L61.8184 46.0408L62.1299 46.1183L62.4518 46.1425L62.7732 46.1123L63.0828 46.0288L63.3697 45.895L63.6242 45.7156L63.8373 45.4967L63.9774 45.2904L64.1454 44.9937L64.1502 44.9852L64.155 44.9766L64.3192 44.6776L64.3239 44.6691L64.3284 44.6605L64.4887 44.3598L64.4932 44.3512L64.4977 44.3425L64.6537 44.0401L64.6581 44.0315L64.6625 44.0228L64.8144 43.7187L64.8188 43.71L64.823 43.7013L64.9708 43.3956L64.975 43.3868L64.9791 43.3781L65.1228 43.0708L65.1269 43.062L65.1309 43.0532L65.2704 42.7443L65.2743 42.7355L65.2782 42.7266L65.4135 42.4163L65.4174 42.4074L65.4211 42.3985L65.5522 42.0866L65.556 42.0777L65.5596 42.0688L65.6864 41.7554L65.6901 41.7465L65.6936 41.7375L65.8163 41.4228L65.8198 41.4138L65.8232 41.4048L65.9416 41.0886L65.945 41.0796L65.9482 41.0706L66.0624 40.7531L66.0656 40.744L66.0688 40.7349L66.1787 40.4162L66.1818 40.4071L66.1848 40.3979L66.2904 40.0779L66.2934 40.0688L66.2963 40.0595L66.3975 39.7383L66.4005 39.7291L66.4032 39.7198L66.5001 39.3974L66.5029 39.3882L66.5055 39.3789L66.5982 39.0553L66.6008 39.046L66.6033 39.0368L66.6915 38.7119L66.694 38.7027L66.6965 38.6934L66.7803 38.3674L66.7827 38.3581L66.7849 38.3488L66.8644 38.0218L66.8666 38.0124L66.8688 38.0031L66.9438 37.6751L66.946 37.6657L66.948 37.6563L67.0186 37.3273L67.0207 37.318L67.0226 37.3085L67.0887 36.9786L67.0906 36.9691L67.0924 36.9597L67.1541 36.6288L67.1559 36.6193L67.1575 36.6099L67.2148 36.2781L67.2165 36.2686L67.218 36.2591L67.2708 35.9265L67.2723 35.917L67.2737 35.9075L67.3219 35.574L67.3233 35.5645L67.3245 35.5549L67.3683 35.2207L67.3695 35.2111L67.3706 35.2016L67.4098 34.8666L67.411 34.857L67.412 34.8474L67.4466 34.5117L67.4476 34.5022L67.4484 34.4926L67.4785 34.1562L67.4794 34.1466L67.4802 34.1369L67.5056 33.7999L67.5064 33.7903L67.507 33.7807L67.5279 33.443L67.5285 33.4333L67.5289 33.4237L67.5452 33.0855L67.5457 33.0759L67.5461 33.0662L67.5577 32.7274L67.5581 32.7178L67.5584 32.7081L67.5654 32.3688L67.5657 32.3592V32.3494L67.5681 32.0098L67.5672 32.0011L67.5681 31.9904L67.5657 31.6507V31.641L67.5654 31.6313L67.5584 31.292L67.5581 31.2823L67.5577 31.2727L67.5461 30.9339L67.5457 30.9243L67.5452 30.9146L67.5326 30.6527L67.4886 30.3642L67.3859 30.088L67.2282 29.8339L67.0208 29.6105L66.7711 29.4257L66.4876 29.2858L66.1804 29.1958L65.8599 29.1589L65.5374 29.1761ZM4.989 30.194L4.67213 30.2509L4.37243 30.3597L4.10035 30.5168L3.86534 30.7166L3.6756 30.9523L3.53762 31.2157L3.45629 31.4976L3.4339 31.7385L3.43213 31.9904V32.0098L3.43449 32.3494L3.43456 32.3591L3.43476 32.3688L3.44173 32.7081L3.44194 32.7178L3.44229 32.7274L3.45393 33.0662L3.45428 33.0759L3.45477 33.0855L3.47106 33.4237L3.47155 33.4333L3.4721 33.443L3.49301 33.7807L3.49363 33.7903L3.49436 33.7999L3.51984 34.1369L3.52057 34.1466L3.52143 34.1562L3.55153 34.4926L3.55239 34.5022L3.55343 34.5117L3.588 34.8474L3.58904 34.857L3.59018 34.8666L3.62936 35.2016L3.63046 35.2111L3.63175 35.2207L3.6755 35.5549L3.67671 35.5645L3.67813 35.574L3.72632 35.9075L3.72778 35.917L3.72927 35.9265L3.78207 36.2591L3.78356 36.2686L3.78519 36.2781L3.84246 36.6099L3.84409 36.6193L3.84586 36.6288L3.9076 36.9597L3.90937 36.9691L3.91127 36.9786L3.97742 37.3085L3.97933 37.3179L3.98134 37.3273L4.05196 37.6563L4.054 37.6657L4.05615 37.6751L4.13117 38.0031L4.13336 38.0125L4.13558 38.0218L4.21507 38.3488L4.21732 38.3581L4.21975 38.3674L4.30358 38.6934L4.306 38.7027L4.30854 38.7119L4.39677 39.0368L4.39926 39.046L4.4019 39.0553L4.49453 39.3789L4.49716 39.3882L4.49994 39.3974L4.59683 39.7198L4.59961 39.7291L4.60252 39.7383L4.70375 40.0595L4.70666 40.0688L4.70971 40.0779L4.81528 40.3979L4.81826 40.4071L4.82145 40.4161L4.93128 40.7349L4.93447 40.744L4.93769 40.7531L5.05185 41.0706L5.05511 41.0796L5.05851 41.0886L5.17686 41.4048L5.18023 41.4138L5.18376 41.4228L5.30649 41.7375L5.30992 41.7465L5.31356 41.7554L5.44044 42.0688L5.44405 42.0777L5.44786 42.0866L5.57891 42.3985L5.58265 42.4074L5.5865 42.4163L5.72181 42.7266L5.72573 42.7355L5.72964 42.7443L5.86915 43.0532L5.87314 43.062L5.87726 43.0708L6.02089 43.3781L6.02502 43.3868L6.02918 43.3956L6.177 43.7013L6.18123 43.71L6.1856 43.7187L6.33748 44.0228L6.34188 44.0315L6.34628 44.0401L6.50236 44.3425L6.50687 44.3512L6.51137 44.3598L6.67157 44.6605L6.67608 44.6691L6.68086 44.6776L6.84505 44.9766L6.8498 44.9852L6.85459 44.9937L6.89563 45.0661L7.06869 45.3121L7.28936 45.5248L7.55006 45.6968L7.84162 45.8223L8.15391 45.8969L8.47621 45.9179L8.79717 45.8847L9.10572 45.7982L9.3911 45.6618L9.64348 45.4799L9.85399 45.2589L10.0153 45.0066L10.122 44.7316L10.1702 44.4437L10.1582 44.1527L10.0865 43.8687L9.98337 43.6454L9.94877 43.5843L9.79225 43.2993L9.64283 43.0189L9.49417 42.7308L9.35238 42.4471L9.21156 42.1558L9.07666 41.8673L8.94267 41.5706L8.81828 41.2852L8.69334 40.9881L8.57561 40.6974L8.45874 40.3976L8.346 40.0968L8.2395 39.8005L8.13543 39.4985L8.03541 39.1954L7.93914 38.8898L7.84907 38.59L7.76261 38.288L7.67774 37.9758L7.59929 37.6707L7.52427 37.3621L7.4532 37.0514L7.38722 36.7439L7.32472 36.4323L7.26606 36.1183L7.21284 35.8098L7.16289 35.4951L7.1173 35.1804L7.07587 34.8637L7.03885 34.5474L7.0066 34.2352L6.97811 33.9168L6.95401 33.5988L6.93425 33.2798L6.91886 32.9606L6.90784 32.6408L6.90118 32.3206L6.89903 32L6.90066 31.7579L6.87254 31.4678L6.78518 31.1874L6.64159 30.9265L6.44675 30.6942L6.20754 30.4984L5.93217 30.3461L5.63018 30.2425L5.31214 30.1913L4.989 30.194ZM15.7991 51.5869L15.4939 51.6824L15.2136 51.8273L14.968 52.0166L14.7656 52.2436L14.6136 52.5006L14.5171 52.7785L14.4794 53.0678L14.502 53.3583L14.5841 53.64L14.7226 53.9032L14.9129 54.1385L15.1055 54.3069L15.1684 54.3539L15.1766 54.3601L15.185 54.3661L15.4755 54.578L15.4838 54.5841L15.4922 54.59L15.7853 54.7984L15.7936 54.8044L15.8021 54.8103L16.0978 55.0153L16.1063 55.0211L16.1148 55.0269L16.413 55.2284L16.4215 55.2342L16.4301 55.2399L16.7309 55.4379L16.7395 55.4436L16.7482 55.4492L17.0514 55.6438L17.06 55.6494L17.0688 55.6549L17.3744 55.846L17.3831 55.8514L17.3919 55.8568L17.7 56.0444L17.7088 56.0498L17.7176 56.055L18.028 56.2391L18.0368 56.2444L18.0458 56.2495L18.3585 56.4301L18.3674 56.4352L18.3764 56.4403L18.6913 56.6173L18.7003 56.6223L18.7094 56.6273L19.0265 56.8007L19.0356 56.8057L19.0448 56.8105L19.3641 56.9804L19.3732 56.9853L19.3824 56.99L19.7039 57.1562L19.7131 57.161L19.7224 57.1656L20.046 57.3283L20.0553 57.3329L20.0646 57.3375L20.3902 57.4965L20.3996 57.501L20.409 57.5054L20.7366 57.6609L20.7461 57.6652L20.7555 57.6696L21.0852 57.8213L21.0947 57.8256L21.1041 57.8298L21.4358 57.9779L21.4453 57.9821L21.4548 57.9863L21.7884 58.1306L21.798 58.1348L21.8075 58.1388L22.143 58.2794L22.1526 58.2835L22.1622 58.2874L22.4996 58.4243L22.5093 58.4282L22.519 58.4321L22.858 58.5653L22.8678 58.5691L22.8775 58.5728L23.2184 58.7023L23.2282 58.7059L23.2379 58.7095L23.5806 58.8353L23.5903 58.8389L23.6002 58.8424L23.9445 58.9643L23.9544 58.9678L23.9642 58.9712L24.3102 59.0894L24.3201 59.0927L24.33 59.096L24.6776 59.2104L24.6875 59.2136L24.6975 59.2168L25.0467 59.3274L25.0566 59.3305L25.0666 59.3336L25.4173 59.4403L25.4274 59.4434L25.4374 59.4463L25.7896 59.5492L25.7997 59.5521L25.8097 59.5549L26.1634 59.654L26.1735 59.6568L26.1836 59.6596L26.5387 59.7547L26.5488 59.7575L26.559 59.76L26.9154 59.8513L26.9256 59.8539L26.9359 59.8564L27.2936 59.9438L27.3038 59.9463L27.3141 59.9487L27.6731 60.0322L27.6834 60.0346L27.6937 60.0368L28.054 60.1163L28.0643 60.1186L28.0746 60.1208L28.4362 60.1964L28.4465 60.1985L28.4569 60.2006L28.7751 60.2634L29.0959 60.299L29.4183 60.2802L29.7313 60.2079L30.024 60.0845L30.286 59.9142L30.5086 59.7031L30.6838 59.4584L30.8056 59.1886L30.8697 58.9032L30.8739 58.612L30.8182 58.3251L30.7043 58.0525L30.5362 57.8038L30.32 57.5874L30.0629 57.411L29.7739 57.2807L29.5171 57.2108L29.209 57.15L28.8719 57.0795L28.5293 57.0039L28.1905 56.9252L27.8517 56.8424L27.5176 56.7569L27.1814 56.6668L26.8498 56.5739L26.5176 56.4769L26.1839 56.3753L25.858 56.2721L25.527 56.1631L25.204 56.0528L24.876 55.9367L24.5535 55.8183L24.2335 55.6968L23.9103 55.5698L23.5956 55.442L23.2804 55.3098L22.9648 55.1732L22.6531 55.0342L22.3454 54.8926L22.0332 54.7447L21.7273 54.5953L21.419 54.4404L21.1171 54.2843L20.8128 54.1224L20.5173 53.9609L20.2214 53.7946L19.9237 53.6227L19.6322 53.4498L19.343 53.2736L19.0523 53.0918L18.7674 52.909L18.4849 52.7229L18.205 52.5338L17.9241 52.3391L17.6463 52.1414L17.3737 51.9427L17.3192 51.9019L17.0524 51.7376L16.7564 51.6208L16.4416 51.5556L16.1187 51.5442L15.7991 51.5869ZM54.3087 51.7189L53.9953 51.7897L53.7018 51.9116L53.4808 52.0487L53.3537 52.1414L53.0759 52.3391L52.795 52.5338L52.5151 52.7229L52.2326 52.909L51.9477 53.0918L51.657 53.2736L51.3678 53.4498L51.0763 53.6227L50.7786 53.7946L50.4827 53.9609L50.1872 54.1224L49.8829 54.2843L49.581 54.4404L49.2727 54.5953L48.9668 54.7447L48.6546 54.8926L48.3469 55.0342L48.0352 55.1732L47.7196 55.3098L47.4044 55.442L47.0897 55.5698L46.7665 55.6967L46.4465 55.8183L46.124 55.9367L45.796 56.0528L45.4731 56.1631L45.142 56.2721L44.8161 56.3753L44.4824 56.4769L44.1502 56.5739L43.8186 56.6668L43.4824 56.7569L43.1483 56.8424L42.8095 56.9252L42.4707 57.0039L42.1282 57.0796L41.7908 57.15L41.4525 57.2169L41.2302 57.2582L40.9213 57.3433L40.6352 57.4787L40.3819 57.6596L40.1704 57.8797L40.0077 58.1314L39.8998 58.4059L39.8502 58.6937L39.8607 58.9848L39.931 59.2691L40.0586 59.5366L40.2391 59.7782L40.4661 59.9854L40.7319 60.151L41.0272 60.2693L41.3416 60.3361L41.6644 60.3491L41.9306 60.3188L42.1596 60.2762L42.17 60.2743L42.1804 60.2722L42.5431 60.2006L42.5535 60.1985L42.5638 60.1964L42.9254 60.1208L42.9357 60.1186L42.946 60.1163L43.3063 60.0368L43.3166 60.0346L43.3269 60.0322L43.6859 59.9487L43.6962 59.9463L43.7064 59.9438L44.0641 59.8564L44.0744 59.8539L44.0846 59.8513L44.441 59.76L44.4512 59.7574L44.4613 59.7547L44.8164 59.6596L44.8265 59.6568L44.8366 59.654L45.1903 59.5549L45.2003 59.5521L45.2104 59.5492L45.5626 59.4463L45.5726 59.4434L45.5827 59.4403L45.9334 59.3336L45.9434 59.3305L45.9533 59.3274L46.3025 59.2168L46.3125 59.2136L46.3224 59.2104L46.67 59.096L46.6799 59.0927L46.6898 59.0894L47.0358 58.9712L47.0456 58.9678L47.0555 58.9643L47.3998 58.8424L47.4097 58.8389L47.4194 58.8353L47.7621 58.7095L47.7718 58.7059L47.7816 58.7023L48.1225 58.5728L48.1322 58.5691L48.142 58.5653L48.4811 58.4321L48.4907 58.4282L48.5004 58.4243L48.8377 58.2873L48.8474 58.2834L48.857 58.2794L49.1925 58.1388L49.202 58.1348L49.2116 58.1306L49.5452 57.9863L49.5547 57.9821L49.5642 57.9779L49.8959 57.8298L49.9053 57.8256L49.9148 57.8213L50.2445 57.6696L50.2539 57.6652L50.2634 57.6609L50.5911 57.5054L50.6004 57.501L50.6098 57.4965L50.9354 57.3375L50.9447 57.3329L50.954 57.3283L51.2776 57.1656L51.2869 57.161L51.2961 57.1562L51.6176 56.99L51.6268 56.9852L51.6359 56.9804L51.9552 56.8105L51.9644 56.8057L51.9735 56.8007L52.2906 56.6273L52.2997 56.6223L52.3087 56.6173L52.6236 56.4403L52.6326 56.4352L52.6415 56.4301L52.9542 56.2495L52.9632 56.2443L52.972 56.2391L53.2824 56.055L53.2913 56.0498L53.3 56.0444L53.6081 55.8568L53.6169 55.8514L53.6256 55.8459L53.9312 55.6549L53.94 55.6493L53.9486 55.6438L54.2518 55.4492L54.2605 55.4436L54.2691 55.4379L54.5699 55.2399L54.5785 55.2342L54.587 55.2285L54.8852 55.0269L54.8937 55.0211L54.9022 55.0153L55.1979 54.8103L55.2064 54.8044L55.2147 54.7984L55.5078 54.59L55.5162 54.584L55.5245 54.5779L55.6615 54.4781L55.8926 54.2746L56.0778 54.036L56.2106 53.7705L56.2866 53.4874L56.3029 53.1965L56.2591 52.908L56.1566 52.6319L55.999 52.3776L55.7918 52.1541L55.5422 51.9691L55.2588 51.8292L54.9516 51.739L54.6312 51.7019L54.3087 51.7189Z" fill="#505CFD"/>
</svg>
