<svg width="75" height="70" viewBox="0 0 75 75" fill="none" xmlns="http://www.w3.org/2000/svg">
<path d="M67.9688 32.5195H60.0586V24.1992C60.0586 22.9028 59.0112 21.8555 57.7148 21.8555H34.6436L26.0522 13.6377C25.9429 13.5354 25.7992 13.4778 25.6494 13.4766H7.03125C5.73486 13.4766 4.6875 14.5239 4.6875 15.8203V59.1797C4.6875 60.4761 5.73486 61.5234 7.03125 61.5234H58.1543C59.1064 61.5234 59.9707 60.9448 60.3296 60.0586L70.144 35.7422C70.2539 35.4639 70.3125 35.1636 70.3125 34.8633C70.3125 33.5669 69.2651 32.5195 67.9688 32.5195ZM9.96094 18.75H23.7671L32.5269 27.1289H54.7852V32.5195H17.4316C16.4795 32.5195 15.6152 33.0981 15.2563 33.9844L9.96094 47.1094V18.75ZM56.4917 56.25H11.6455L19.2114 37.5H64.0649L56.4917 56.25Z" fill="#505CFD"/>
</svg>
