<svg width="75" height="75" viewBox="0 0 75 75" fill="none" xmlns="http://www.w3.org/2000/svg">
<g clip-path="url(#clip0)">
<path d="M39.5186 0V11.9014H43.561V0H39.5182H39.5186ZM23.0117 3.57656L19.6997 5.8955L26.5249 15.6421L29.8351 13.3231L23.0117 3.57656ZM60.0671 3.57656L53.2439 13.3232L56.5546 15.6422L63.3796 5.8955L60.0676 3.57656H60.0671ZM41.5389 15.1578C31.6497 15.1578 23.6331 21.1629 23.6331 28.5718L33.8064 59.3811H49.2732L59.4456 28.5718C59.4456 21.1631 51.4295 15.1578 41.5399 15.1578H41.5389ZM9.38119 18.7296L8 22.5304L19.1781 26.6001L20.5644 22.801L9.38094 18.7296H9.38119ZM73.6976 18.7296L62.5141 22.8013L63.8957 26.6008L75.0792 22.5305L73.6976 18.7296ZM20.0244 36.1051L8.53063 39.1879L9.5735 43.0899L21.0672 40.0114L20.0246 36.1051H20.0244ZM63.0544 36.1051L62.0122 40.0114L73.506 43.0893L74.5481 39.1873L63.0544 36.1049V36.1051ZM33.5809 61.627V66.9824H49.4988V61.6278H33.5809L33.5809 61.627ZM33.5809 69.6446V75H49.4988V69.6455H33.5809L33.5809 69.6446Z" fill="#505CFD"/>
</g>
<defs>
<clipPath id="clip0">
<rect width="75" height="75" fill="white"/>
</clipPath>
</defs>
</svg>
