<svg width="75" height="75" viewBox="0 0 75 75" fill="none" xmlns="http://www.w3.org/2000/svg">
<path d="M23.4375 14.0625C23.4375 10.3329 24.9191 6.75604 27.5564 4.11881C30.1936 1.48158 33.7704 0 37.5 0C41.2297 0 44.8065 1.48158 47.4437 4.11881C50.081 6.75604 51.5625 10.3329 51.5625 14.0625C51.5625 17.7921 50.081 21.369 47.4437 24.0062C44.8065 26.6434 41.2297 28.125 37.5 28.125C33.7704 28.125 30.1936 26.6434 27.5564 24.0062C24.9191 21.369 23.4375 17.7921 23.4375 14.0625ZM56.2547 32.8125H53.6626L39.0797 62.4188L44.5313 35.1562L37.5 28.125L30.4688 35.1562L35.9204 62.4188L21.3375 32.8125H18.7407C9.37036 32.8125 9.37036 39.1125 9.37036 46.875V70.3125H65.6204V46.875C65.6204 39.1125 65.6204 32.8125 56.25 32.8125H56.2547Z" fill="#505CFD"/>
</svg>
