<svg width="75" height="75" viewBox="0 0 75 75" fill="none" xmlns="http://www.w3.org/2000/svg">
<path d="M53.8728 10.3479C53.8736 9.88379 53.7366 9.42983 53.4791 9.04363C53.2216 8.65743 52.8553 8.35638 52.4265 8.17864C51.9977 8.0009 51.5258 7.95448 51.0706 8.04527C50.6154 8.13605 50.1974 8.35994 49.8696 8.68857L40.4946 18.0636C40.2771 18.2816 40.1047 18.5404 39.9873 18.8251C39.8699 19.1099 39.8097 19.415 39.8103 19.7229V32.8151L36.3368 36.2839C35.642 36.0995 34.9141 36.0771 34.2092 36.2183C33.5043 36.3596 32.8412 36.6608 32.2711 37.0987C31.701 37.5366 31.239 38.0995 30.9207 38.7441C30.6024 39.3887 30.4363 40.0978 30.4353 40.8167C30.4362 41.4836 30.5795 42.1426 30.8555 42.7497C31.1315 43.3568 31.5338 43.8981 32.0357 44.3373C32.5375 44.7765 33.1273 45.1035 33.7657 45.2966C34.404 45.4897 35.0762 45.5443 35.7373 45.4569C36.3985 45.3694 37.0333 45.1419 37.5995 44.7896C38.1657 44.4372 38.6502 43.9681 39.0207 43.4135C39.3911 42.8589 39.6389 42.2317 39.7476 41.5737C39.8563 40.9158 39.8233 40.2422 39.6509 39.5979L43.1243 36.1292H56.2165C56.5245 36.1297 56.8296 36.0696 57.1143 35.9522C57.399 35.8347 57.6578 35.6623 57.8759 35.4448L67.2509 26.0698C67.5795 25.742 67.8034 25.324 67.8942 24.8688C67.985 24.4136 67.9386 23.9417 67.7608 23.513C67.5831 23.0842 67.282 22.7178 66.8958 22.4603C66.5096 22.2029 66.0557 22.0659 65.5915 22.0667H53.8728V10.3479ZM62.9853 36.9636C63.7919 42.8003 62.745 48.7429 59.9923 53.9527C57.2397 59.1624 52.9204 63.376 47.6441 65.9987C42.3678 68.6215 36.4011 69.5209 30.5861 68.57C24.7712 67.6191 19.4017 64.8659 15.2357 60.6991C11.0697 56.5323 8.31757 51.1623 7.36781 45.3471C6.41804 39.532 7.31862 33.5654 9.9424 28.2897C12.5662 23.0139 16.7807 18.6954 21.9909 15.9438C27.2011 13.1922 33.144 12.1465 38.9806 12.9542L37.1853 14.7495C36.5316 15.4024 36.013 16.1776 35.6591 17.031C35.3052 17.8844 35.123 18.7991 35.1228 19.7229C30.9508 19.7229 26.8725 20.9601 23.4037 23.2779C19.9348 25.5957 17.2312 28.8901 15.6347 32.7445C14.0381 36.5988 13.6204 40.8401 14.4343 44.9319C15.2482 49.0237 17.2572 52.7822 20.2072 55.7322C23.1572 58.6822 26.9158 60.6912 31.0076 61.5051C35.0994 62.319 39.3406 61.9013 43.195 60.3048C47.0494 58.7082 50.3438 56.0046 52.6616 52.5358C54.9794 49.0669 56.2165 44.9886 56.2165 40.8167C58.0807 40.8151 59.8679 40.0732 61.1853 38.7542L62.9853 36.9636ZM35.1228 24.4104C31.8779 24.4104 28.7059 25.3727 26.0079 27.1754C23.3099 28.9781 21.2071 31.5404 19.9654 34.5383C18.7236 37.5361 18.3987 40.8349 19.0317 44.0174C19.6648 47.1999 21.2273 50.1232 23.5218 52.4177C25.8162 54.7121 28.7396 56.2747 31.9221 56.9077C35.1046 57.5407 38.4033 57.2158 41.4012 55.9741C44.399 54.7323 46.9613 52.6295 48.7641 49.9315C50.5668 47.2335 51.529 44.0615 51.529 40.8167H45.0649L44.479 41.4026C44.3663 43.2034 43.7364 44.9335 42.6647 46.3851C41.5931 47.8367 40.1254 48.9483 38.4376 49.5864C36.7499 50.2244 34.9139 50.3619 33.1499 49.9823C31.386 49.6027 29.769 48.7221 28.4932 47.4463C27.2173 46.1704 26.3368 44.5535 25.9571 42.7895C25.5775 41.0256 25.715 39.1896 26.3531 37.5018C26.9912 35.8141 28.1027 34.3463 29.5543 33.2747C31.006 32.2031 32.736 31.5731 34.5368 31.4604L35.1228 30.8745V24.4104Z" fill="#505CFD"/>
</svg>
